# AST/ASF file generated using VICON BodyLanguage
# -----------------------------------------------
:version 1.10
:name VICON
:units
  mass 1.0
  length 0.45
  angle deg
:documentation
   .ast/.asf automatically generated from VICON data using
   VICON BodyBuilder and BodyLanguage model FoxedUp or BRILLIANT.MOD
:root
   order TX TY TZ RX RY RZ
   axis XYZ
   position 0 0 0  
   orientation 0 0 0 
:bonedata
  begin
     id 1 
     name lhipjoint
     direction 0.567149 -0.783011 0.255413 
     length 2.28399 
     axis 0 0 0  XYZ
  end
  begin
     id 2 
     name lfemur
     direction 0.34202 -0.939693 0  
     length 7.34031  
     axis 0 0 20  XYZ
    dof rx ry rz
    limits (-160.0 20.0)
           (-70.0 70.0)
           (-60.0 70.0)
  end
  begin
     id 3 
     name ltibia
     direction 0.34202 -0.939693 0   
     length 6.9833   
     axis 0 0 20   XYZ
    dof rx
    limits (-10.0 170.0)
  end
  begin
     id 4 
     name lfoot
     direction 0.136498 -0.375025 0.91691   
     length 2.33665   
     axis -90 7.62852e-016 20   XYZ
    dof rx rz
    limits (-45.0 90.0)
           (-70.0 20.0)
  end
  begin
     id 5 
     name ltoes
     direction 1.5367e-011 -4.21617e-011 1   
     length 1.15039   
     axis -90 7.62852e-016 20   XYZ
    dof rx
    limits (-90.0 20.0)
  end
  begin
     id 6 
     name rhipjoint
     direction -0.602854 -0.758518 0.247423   
     length 2.35775  
     axis 0 0 0  XYZ 
  end
  begin
     id 7 
     name rfemur
     direction -0.34202 -0.939693 0   
     length 7.43932   
     axis 0 0 -20   XYZ
    dof rx ry rz
    limits (-160.0 20.0)
           (-70.0 70.0)
           (-70.0 60.0)
  end
  begin
     id 8 
     name rtibia
     direction -0.34202 -0.939693 0   
     length 7.11893   
     axis 0 0 -20   XYZ
    dof rx
    limits (-10.0 170.0)
 end
 begin
     id 9 
     name rfoot
     direction -0.131771 -0.362037 0.922803   
     length 2.53019  
     axis -90 -7.62852e-016 -20   XYZ
    dof rx rz
    limits (-45.0 90.0)
           (-20.0 70.0)
  end
  begin
     id 10 
     name rtoes
     direction -1.53733e-011 -4.21932e-011 1   
     length 1.24596   
     axis -90 -7.62852e-016 -20   XYZ
    dof rx
    limits (-90.0 20.0)
  end
  begin
     id 11 
     name lowerback
     direction 0.0235427 0.999023 -0.0374125   
     length 2.21768   
     axis 0 0 0   XYZ
    dof rx ry rz
    limits (-20.0 45.0)
           (-30.0 30.0)
           (-30.0 30.0)
  end
  begin
     id 12 
     name upperback
     direction 0.0302156 0.996818 -0.073759   
     length 2.20352   
     axis 0 0 0   XYZ
    dof rx ry rz
    limits (-20.0 45.0)
           (-30.0 30.0)
           (-30.0 30.0)
  end
  begin
     id 13 
     name thorax
     direction 0.0187169 0.998235 -0.0563532   
     length 2.22103   
     axis 0 0 0   XYZ
    dof rx ry rz
    limits (-20.0 45.0)
           (-30.0 30.0)
           (-30.0 30.0)
  end
  begin
     id 14 
     name lowerneck
     direction -0.119528 0.987423 0.103481   
     length 1.72948   
     axis 0 0 0   XYZ
    dof rx ry rz
    limits (-20.0 45.0)
           (-30.0 30.0)
           (-30.0 30.0)
  end
  begin
     id 15 
     name upperneck
     direction 0.248049 0.963095 -0.104496   
     length 1.74979   
     axis 0 0 0   XYZ
    dof rx ry rz
    limits (-20.0 45.0)
           (-30.0 30.0)
           (-30.0 30.0)
  end
  begin
     id 16
     name head
     direction 0.0903589 0.994284 -0.056876  
     length 1.78268  
     axis 0 0 0   XYZ
    dof rx ry rz
    limits (-20.0 45.0)
           (-30.0 30.0)
           (-30.0 30.0)
  end
  begin
     id 17 
     name lclavicle
     direction 0.946008 0.242039 -0.215608  
     length 3.80783  
     axis 0 0 0   XYZ
    dof ry rz
    limits (-20.0 10.0)
           (0.0 20.0)
  end
  begin
     id 18 
     name lhumerus
     direction 1 -4.48991e-011 -2.25695e-027   
     length 4.83125   
     axis 180 -30 -90   XYZ
    dof rx ry rz
    limits (-60.0 90.0)
           (-90.0 90.0)
           (-90.0 90.0)
  end
  begin
     id 19
     name lradius
     direction 0.999991 0.00366712 -0.00211721   
     length 3.00391   
     axis 180 -30 -90   XYZ
    dof rx
    limits (-10.0 170.0)
  end
  begin
     id 20
     name lwrist
     direction 0.999991 0.00393016 -0.00141978   
     length 1.50195   
     axis -1.00488e-014 90 90   XYZ
    dof ry
    limits (-180.0 0.0)
 end
  begin
     id 21 
     name lhand
     direction 1 -4.49123e-011 2.72098e-026   
     length 1.2717   
     axis -1.73687e-014 90 90   XYZ
    dof rx rz
    limits (-90.0 90.0)
           (-45.0 45.0)
  end
  begin
     id 22 
     name lfingers
     direction 1 -4.48678e-011 5.4479e-026   
     length 1.02528   
     axis -3.47372e-014 90 90   XYZ
    dof rx
    limits (0.0 90.0)
  end
  begin
     id 23
     name lthumb
     direction 0.707107 -6.34851e-011 0.707107   
     length 1.4721   
     axis -90 45 -1.62303e-014   XYZ
    dof rx rz
    limits (-45.0 45.0)
           (-45.0 45.0)
  end
  begin
     id 24 
     name rclavicle
     direction -0.981723 0.189447 -0.0181673   
     length 3.74989  
     axis 0 0 0   XYZ 
    dof ry rz
    limits (-10.0 20.0)
           (-20.0 0.0)
  end
  begin
     id 25 
     name rhumerus
     direction -1 -4.48985e-011 2.38206e-027  
     length 4.61118   
     axis 180 30 90   XYZ
    dof rx ry rz
    limits (-90.0 60.0)
           (-90.0 90.0)
           (-90.0 90.0)
  end
  begin
     id 26 
     name rradius
     direction -1 -4.48977e-011 7.41019e-027   
     length 2.91491   
     axis 180 30 90   XYZ
    dof rx
    limits (-10.0 170.0)
  end
  begin
     id 27 
     name rwrist
     direction -1 -4.48549e-011 1.3624e-026   
     length 1.45745   
     axis -1.00488e-014 -90 -90   XYZ
    dof ry
    limits (-180.0 0.0)
  end
  begin
     id 28
     name rhand
     direction -1 -4.49107e-011 2.72109e-026   
     length 1.30769   
     axis -1.73687e-014 -90 -90   XYZ
    dof rx rz
    limits (-90.0 90.0)
           (-45.0 45.0)
  end
  begin
     id 29
     name rfingers
     direction -1 -4.48919e-011 5.44468e-026   
     length 1.05429   
     axis -3.47372e-014 -90 -90   XYZ
    dof rx
    limits (0.0 90.0)
  end
  begin
     id 30
     name rthumb
     direction -0.707107 -6.35315e-011 0.707107   
     length 1.51376   
     axis -90 -45 1.62303e-014   XYZ
    dof rx rz
    limits (-45.0 45.0)
           (-45.0 45.0)
  end
:hierarchy
  begin
    root lhipjoint rhipjoint lowerback
    lhipjoint lfemur
    lfemur ltibia
    ltibia lfoot
    lfoot ltoes
    rhipjoint rfemur
    rfemur rtibia
    rtibia rfoot
    rfoot rtoes
    lowerback upperback
    upperback thorax
    thorax lowerneck lclavicle rclavicle
    lowerneck upperneck
    upperneck head
    lclavicle lhumerus
    lhumerus lradius
    lradius lwrist
    lwrist lhand lthumb
    lhand lfingers
    rclavicle rhumerus
    rhumerus rradius
    rradius rwrist
    rwrist rhand rthumb
    rhand rfingers
  end

#!OML:ASF X:\für Bonn\!DataBase\2005_08_11_Bastian_Final\c3d\Bastian.ASF
:FULLY-SPECIFIED
:DEGREES
16
root 24.615 17.287 -5.18325 538.039 -103.367 -192.089
lowerback 23.4713 -0.118657 3.97219
upperback 15.0704 -0.762007 4.03055
thorax 3.64027 -0.871656 2.22607
lowerneck 3.18017 -5.47982 -5.26885
upperneck 11.9338 -8.07438 5.12263
head 3.84219 -4.12689 2.42556
rclavicle 2.50469e-014 -1.35174e-014
rhumerus -5.33035 11.5913 -78.6223
rradius 21.0191
rwrist -1.32504
rhand -24.222 -2.75588
rfingers 7.12502
rthumb 2.26294 -32.7236
lclavicle 2.50469e-014 -1.35174e-014
lhumerus -11.5514 -20.1555 92.4844
lradius 25.4479
lwrist 19.6861
lhand -13.4437 -6.98786
lfingers 7.12502
lthumb 12.6655 22.6081
rfemur -11.6801 -0.0332087 24.0234
rtibia 30.3653
rfoot 0.417844 -8.33159
rtoes 2.82152
lfemur -0.863136 1.14196 -16.7608
ltibia 58.477
lfoot -2.23292 -11.9036
ltoes -27.0181
17
root 24.574 17.2888 -5.19523 537.95 -103.559 -192.132
lowerback 24.3148 -0.0872538 4.21613
upperback 15.4105 -0.70845 4.14357
thorax 3.63923 -0.861969 2.21656
lowerneck 2.93783 -5.58715 -5.17869
upperneck 11.439 -8.16961 5.19044
head 3.71671 -4.15659 2.42537
rclavicle -7.95139e-015 -2.54444e-014
rhumerus -4.18674 11.9436 -78.1662
rradius 20.8159
rwrist -1.42964
rhand -24.4186 -2.80111
rfingers 7.12502
rthumb 2.07309 -32.7708
lclavicle -7.95139e-015 -2.54444e-014
lhumerus -11.3974 -20.3635 92.4405
lradius 25.2093
lwrist 19.7482
lhand -13.373 -6.92236
lfingers 7.12502
lthumb 12.7337 22.6694
rfemur -11.4056 -0.328023 24.092
rtibia 30.364
rfoot 0.443936 -8.29241
rtoes 3.55338
lfemur -1.773 1.16517 -16.6251
ltibia 59.4942
lfoot -2.45775 -10.4598
ltoes -27.6694
18
root 24.5346 17.2935 -5.20736 537.889 -103.752 -192.192
lowerback 25.2038 -0.0646057 4.50426
upperback 15.6952 -0.642099 4.23182
thorax 3.55971 -0.839498 2.15346
lowerneck 2.87735 -5.72282 -4.93878
upperneck 10.9524 -8.30375 5.1457
head 3.54832 -4.20771 2.36374
rclavicle 7.95139e-015 -4.05521e-014
rhumerus -3.15818 12.1557 -77.7607
rradius 20.6523
rwrist -1.46924
rhand -24.5831 -2.87611
rfingers 7.12502
rthumb 1.91418 -32.8473
lclavicle 7.95139e-015 -4.05521e-014
lhumerus -11.3869 -20.7368 92.4042
lradius 25.0516
lwrist 19.8898
lhand -13.2738 -6.75857
lfingers 7.12502
lthumb 12.8293 22.8272
rfemur -11.1159 -0.64421 24.1672
rtibia 30.2965
rfoot 0.503869 -8.21686
rtoes 4.16134
lfemur -2.67908 1.17756 -16.4905
ltibia 60.2998
lfoot -2.91894 -9.00556
ltoes -28.0493
19
root 24.4975 17.3012 -5.21981 537.895 -103.955 -192.244
lowerback 26.0516 -0.0461399 4.78036
upperback 15.9504 -0.576754 4.34188
thorax 3.47283 -0.818224 2.12016
lowerneck 2.8259 -5.84544 -4.766
upperneck 10.4421 -8.42437 5.14406
head 3.37662 -4.25487 2.33043
rclavicle 1.03368e-014 3.18055e-015
rhumerus -2.13824 12.5472 -77.2874
rradius 20.5178
rwrist -1.72296
rhand -24.7911 -2.94873
rfingers 7.12502
rthumb 1.71337 -32.9216
lclavicle 1.03368e-014 3.18055e-015
lhumerus -11.3975 -21.1663 92.3944
lradius 24.9364
lwrist 20.0378
lhand -13.2539 -6.70525
lfingers 7.12502
lthumb 12.8484 22.8793
rfemur -10.8801 -0.886561 24.2376
rtibia 30.1717
rfoot 0.568151 -8.23351
rtoes 4.83663
lfemur -3.66596 1.2034 -16.3603
ltibia 60.9173
lfoot -3.53557 -7.75737
ltoes -28.2904
20
root 24.4623 17.309 -5.23128 537.787 -104.165 -192.19
lowerback 26.9274 -0.0366979 5.07872
upperback 16.2088 -0.513562 4.4244
thorax 3.38405 -0.795197 2.04483
lowerneck 2.74257 -5.98027 -4.49305
upperneck 9.92882 -8.55574 5.08917
head 3.20269 -4.30562 2.26071
rclavicle -1.11319e-014 5.56597e-015
rhumerus -1.11287 12.8288 -76.8253
rradius 20.3621
rwrist -1.88538
rhand -25.0406 -3.02145
rfingers 7.12502
rthumb 1.47231 -32.9961
lclavicle -1.11319e-014 5.56597e-015
lhumerus -11.445 -21.804 92.3533
lradius 24.9478
lwrist 20.3057
lhand -13.2768 -6.73009
lfingers 7.12502
lthumb 12.8264 22.8558
rfemur -10.6329 -1.22048 24.2733
rtibia 30.0292
rfoot 0.644845 -8.14868
rtoes 5.47788
lfemur -4.59298 1.11924 -16.3034
ltibia 61.3157
lfoot -4.28771 -6.72838
ltoes -27.8491
21
root 24.4276 17.3174 -5.24271 537.765 -104.371 -192.179
lowerback 27.7691 -0.0382064 5.3585
upperback 16.4509 -0.46439 4.53318
thorax 3.29954 -0.781861 2.01136
lowerneck 2.65925 -6.09585 -4.32788
upperneck 9.41985 -8.66637 5.06904
head 3.03837 -4.35036 2.2232
rclavicle -5.56597e-014 -3.18055e-014
rhumerus -0.0857933 13.1633 -76.3222
rradius 20.2003
rwrist -2.03709
rhand -25.2934 -3.06578
rfingers 7.12502
rthumb 1.22824 -33.042
lclavicle -5.56597e-014 -3.18055e-014
lhumerus -11.4823 -22.278 92.3484
lradius 24.963
lwrist 20.4656
lhand -13.2568 -6.74965
lfingers 7.12502
lthumb 12.8456 22.8351
rfemur -10.454 -1.46793 24.325
rtibia 29.9259
rfoot 0.707736 -8.15819
rtoes 6.06114
lfemur -5.4852 0.992859 -16.2635
ltibia 61.4669
lfoot -5.11607 -6.08217
ltoes -27.2255
22
root 24.3947 17.3235 -5.25344 537.631 -104.556 -192.04
lowerback 28.6054 -0.029036 5.6252
upperback 16.7007 -0.402886 4.63013
thorax 3.23313 -0.76273 1.9691
lowerneck 2.5419 -6.21673 -4.16509
upperneck 8.91156 -8.78594 5.07338
head 2.88369 -4.39939 2.19351
rclavicle 7.95139e-015 6.36111e-015
rhumerus 0.964773 13.5693 -75.7596
rradius 20.0458
rwrist -2.27535
rhand -25.5806 -3.15408
rfingers 7.12502
rthumb 0.950852 -33.1317
lclavicle 7.95139e-015 6.36111e-015
lhumerus -11.5237 -22.8959 92.3244
lradius 25.0665
lwrist 20.7172
lhand -13.2389 -6.69312
lfingers 7.12502
lthumb 12.8629 22.8905
rfemur -10.3224 -1.66505 24.3358
rtibia 29.8962
rfoot 0.704437 -8.18885
rtoes 6.73513
lfemur -6.30648 0.811506 -16.2793
ltibia 61.3565
lfoot -5.83575 -5.88411
ltoes -25.7597
23
root 24.3631 17.3257 -5.26386 537.375 -104.741 -191.752
lowerback 29.4499 -0.0248739 5.84154
upperback 16.9292 -0.351369 4.723
thorax 3.14337 -0.751885 1.95329
lowerneck 2.41094 -6.33193 -4.00374
upperneck 8.44425 -8.89915 5.04744
head 2.74417 -4.44687 2.15382
rclavicle -1.59028e-015 7.79236e-014
rhumerus 2.01492 13.8225 -75.2279
rradius 19.8698
rwrist -2.4342
rhand -25.7683 -3.21112
rfingers 7.12502
rthumb 0.769493 -33.1895
lclavicle -1.59028e-015 7.79236e-014
lhumerus -11.5685 -23.4221 92.3111
lradius 25.1867
lwrist 20.8553
lhand -13.2112 -6.56982
lfingers 7.12502
lthumb 12.8896 23.0121
rfemur -10.2792 -1.89915 24.3058
rtibia 29.9675
rfoot 0.660878 -8.15832
rtoes 7.03883
lfemur -7.0716 0.660261 -16.3353
ltibia 60.9749
lfoot -6.39938 -6.0468
ltoes -24.3739
24
root 24.3334 17.3229 -5.27513 537.375 -104.892 -191.687
lowerback 30.2785 -0.0201963 6.0846
upperback 17.1498 -0.291426 4.84516
thorax 3.05944 -0.737252 1.95253
lowerneck 2.35068 -6.43237 -3.91816
upperneck 7.89946 -8.99371 5.04494
head 2.57142 -4.48914 2.13935
rclavicle 1.35174e-014 4.92986e-014
rhumerus 3.07204 14.0558 -74.6582
rradius 19.7324
rwrist -2.57548
rhand -25.9272 -3.30376
rfingers 7.12502
rthumb 0.616095 -33.2826
lclavicle 1.35174e-014 4.92986e-014
lhumerus -11.6138 -23.8713 92.3147
lradius 25.3692
lwrist 21.0016
lhand -13.1788 -6.42359
lfingers 7.12502
lthumb 12.9209 23.1564
rfemur -10.3573 -2.04796 24.3488
rtibia 30.1478
rfoot 0.581718 -8.19442
rtoes 7.40614
lfemur -7.78143 0.495488 -16.3315
ltibia 60.333
lfoot -6.82762 -6.33047
ltoes -23.1224
25
root 24.3069 17.3145 -5.28728 537.451 -105.045 -191.697
lowerback 31.4697 -0.0545627 6.42721
upperback 17.3053 -0.224153 4.99652
thorax 2.72585 -0.714636 1.84386
lowerneck 2.21292 -6.53897 -3.82609
upperneck 7.37999 -9.09646 5.03932
head 2.42203 -4.53467 2.12007
rclavicle 4.6118e-014 -3.02153e-014
rhumerus 4.1647 13.9259 -74.1271
rradius 19.5634
rwrist -2.47573
rhand -25.9775 -3.32908
rfingers 7.12502
rthumb 0.567469 -33.3081
lclavicle 4.6118e-014 -3.02153e-014
lhumerus -11.6168 -24.4275 92.2914
lradius 25.5906
lwrist 21.1357
lhand -13.1307 -6.29654
lfingers 7.12502
lthumb 12.9672 23.2805
rfemur -10.4973 -2.14889 24.4227
rtibia 30.4267
rfoot 0.462348 -8.28058
rtoes 7.79981
lfemur -8.42854 0.31524 -16.2992
ltibia 59.4648
lfoot -7.19138 -6.76284
ltoes -22.2918
26
root 24.2796 17.305 -5.29967 537.465 -105.162 -191.63
lowerback 32.3115 -0.0375995 6.66005
upperback 17.545 -0.150223 5.12247
thorax 2.69001 -0.696794 1.84895
lowerneck 2.08209 -6.63337 -3.75017
upperneck 6.81715 -9.18397 5.05982
head 2.25968 -4.57372 2.11374
rclavicle 7.15625e-015 -4.92986e-014
rhumerus 5.27343 13.7091 -73.6209
rradius 19.444
rwrist -2.30876
rhand -25.9952 -3.41399
rfingers 7.12502
rthumb 0.550362 -33.393
lclavicle 7.15625e-015 -4.92986e-014
lhumerus -11.5632 -24.875 92.2446
lradius 25.7908
lwrist 21.2105
lhand -13.0682 -6.16168
lfingers 7.12502
lthumb 13.0274 23.4115
rfemur -10.6803 -2.25813 24.4742
rtibia 30.7558
rfoot 0.320709 -8.30409
rtoes 7.96599
lfemur -9.00051 0.203915 -16.2824
ltibia 58.4039
lfoot -7.48631 -7.32953
ltoes -21.4484
